<?xml version="1.0" encoding="iso-8859-1"?>
<!-- Generator: Adobe Illustrator 19.0.0, SVG Export Plug-In . SVG Version: 6.00 Build 0)  -->
<svg xmlns="http://www.w3.org/2000/svg" xmlns:xlink="http://www.w3.org/1999/xlink" version="1.1" id="Capa_1" x="0px" y="0px" viewBox="0 0 496 496" style="enable-background:new 0 0 496 496;" xml:space="preserve" width="512px" height="512px">
<g>
	<g>
		<g>
			<path d="M200,104V88c0-8.824-7.176-16-16-16h-8v-8.736c0-11.888,5.904-22.92,15.8-29.512c5.136-3.424,8.2-9.16,8.2-15.328     C200,8.264,191.736,0,181.576,0h-12.04c-23.664,0-44.632,14.2-53.424,36.168C113.384,42.992,112,50.184,112,57.536V72h-8     c-8.824,0-16,7.176-16,16v96c0,8.824,7.176,16,16,16h8v9.368c-9.312,3.304-16,12.2-16,22.632v8c0,13.232,10.768,24,24,24h48     c13.232,0,24-10.768,24-24v-8c0-10.432-6.688-19.328-16-22.632V200h8c8.824,0,16-7.176,16-16v-16h296v-64H200z M128,57.536     c0-5.312,1-10.496,2.976-15.424C137.32,26.248,152.464,16,169.536,16h12.04c1.336,0,2.424,1.088,2.424,2.424     c0,0.816-0.408,1.568-1.08,2.016C168.568,30.008,160,46.016,160,63.264V72h-32V57.536z M176,240c0,4.408-3.584,8-8,8h-48     c-4.416,0-8-3.592-8-8v-8c0-4.408,3.584-8,8-8h8v-24h32v24h8c4.416,0,8,3.592,8,8V240z M184.008,184H104V88h80v16v64h0.008V184z      M480,152H200v-32h280V152z" fill="#363636"/>
			<path d="M168,296h32v-16H88v16h32v88H0v112h496V384H168V296z M136,296h16v88h-16V296z M32,480H16v-80h16V480z M480,400v16h-32v16     h32v16h-48v16h48v16H48v-48h88c4.416,0,8,3.592,8,8c0,4.408-3.584,8-8,8h-24v16h24c13.232,0,24-10.768,24-24s-10.768-24-24-24H48     v-16H480z" fill="#363636"/>
			<rect x="176" y="432" width="96" height="16" fill="#363636"/>
			<path d="M408,440c0-13.232-10.768-24-24-24h-24v16h24c4.416,0,8,3.592,8,8c0,4.408-3.584,8-8,8h-88v16h88     C397.232,464,408,453.232,408,440z" fill="#363636"/>
			<rect x="32" y="216" width="16" height="16" fill="#363636"/>
			<rect x="32" y="248" width="16" height="16" fill="#363636"/>
			<rect x="48" y="232" width="16" height="16" fill="#363636"/>
			<rect x="16" y="232" width="16" height="16" fill="#363636"/>
			<rect x="240" y="264" width="16" height="16" fill="#363636"/>
			<rect x="240" y="296" width="16" height="16" fill="#363636"/>
			<rect x="256" y="280" width="16" height="16" fill="#363636"/>
			<rect x="224" y="280" width="16" height="16" fill="#363636"/>
		</g>
	</g>
</g>
<g>
</g>
<g>
</g>
<g>
</g>
<g>
</g>
<g>
</g>
<g>
</g>
<g>
</g>
<g>
</g>
<g>
</g>
<g>
</g>
<g>
</g>
<g>
</g>
<g>
</g>
<g>
</g>
<g>
</g>
</svg>
